<?xml version="1.0" standalone="no"?><!DOCTYPE svg PUBLIC "-//W3C//DTD SVG 1.1//EN" "http://www.w3.org/Graphics/SVG/1.1/DTD/svg11.dtd">
<svg x="0.0000mm" y="0.0000mm" width="59.2670mm" height="39.1580mm" viewBox="0.0000 0.0000 59.2670 39.1580" version="1.1" xmlns="http://www.w3.org/2000/svg" shape-rendering="crispEdges">
<title>TBarCode - 11.7.2.15659</title>
<desc>BarCode licensed to MEM:TEC-IT Datenverarbeitung GmbH Internal License</desc>
<g fill="rgb(255,255,255)">
</g>
<g fill="none">
<rect x="0.0000" y="0.0000" width="59.2662" height="39.1580" />
</g>
<g fill="rgb(255,255,255)">
</g>
<g fill="rgb(255,255,255)">
<ellipse cx="0.5292" cy="0.5292" rx="0.5292" ry="0.5292" />
<ellipse cx="2.6458" cy="0.5292" rx="0.5292" ry="0.5292" />
<ellipse cx="4.7625" cy="0.5292" rx="0.5292" ry="0.5292" />
<ellipse cx="8.9958" cy="0.5292" rx="0.5292" ry="0.5292" />
<ellipse cx="11.1124" cy="0.5292" rx="0.5292" ry="0.5292" />
<ellipse cx="17.4624" cy="0.5292" rx="0.5292" ry="0.5292" />
<ellipse cx="21.6956" cy="0.5292" rx="0.5292" ry="0.5292" />
<ellipse cx="23.8123" cy="0.5292" rx="0.5292" ry="0.5292" />
<ellipse cx="30.1622" cy="0.5292" rx="0.5292" ry="0.5292" />
<ellipse cx="32.2789" cy="0.5292" rx="0.5292" ry="0.5292" />
<ellipse cx="36.5122" cy="0.5292" rx="0.5292" ry="0.5292" />
<ellipse cx="42.8621" cy="0.5292" rx="0.5292" ry="0.5292" />
<ellipse cx="44.9788" cy="0.5292" rx="0.5292" ry="0.5292" />
<ellipse cx="49.2121" cy="0.5292" rx="0.5292" ry="0.5292" />
<ellipse cx="51.3287" cy="0.5292" rx="0.5292" ry="0.5292" />
<ellipse cx="53.4454" cy="0.5292" rx="0.5292" ry="0.5292" />
<ellipse cx="55.5620" cy="0.5292" rx="0.5292" ry="0.5292" />
<ellipse cx="57.6787" cy="0.5292" rx="0.5292" ry="0.5292" />
</g>
<g fill="rgb(255,255,255)">
<ellipse cx="3.7041" cy="1.5875" rx="0.5292" ry="0.5292" />
<ellipse cx="10.0541" cy="1.5875" rx="0.5292" ry="0.5292" />
<ellipse cx="12.1707" cy="1.5875" rx="0.5292" ry="0.5292" />
<ellipse cx="14.2874" cy="1.5875" rx="0.5292" ry="0.5292" />
<ellipse cx="20.6373" cy="1.5875" rx="0.5292" ry="0.5292" />
<ellipse cx="22.7540" cy="1.5875" rx="0.5292" ry="0.5292" />
<ellipse cx="24.8706" cy="1.5875" rx="0.5292" ry="0.5292" />
<ellipse cx="29.1039" cy="1.5875" rx="0.5292" ry="0.5292" />
<ellipse cx="33.3372" cy="1.5875" rx="0.5292" ry="0.5292" />
<ellipse cx="37.5705" cy="1.5875" rx="0.5292" ry="0.5292" />
<ellipse cx="39.6872" cy="1.5875" rx="0.5292" ry="0.5292" />
<ellipse cx="41.8038" cy="1.5875" rx="0.5292" ry="0.5292" />
<ellipse cx="50.2704" cy="1.5875" rx="0.5292" ry="0.5292" />
<ellipse cx="56.6204" cy="1.5875" rx="0.5292" ry="0.5292" />
<ellipse cx="58.7370" cy="1.5875" rx="0.5292" ry="0.5292" />
</g>
<g fill="rgb(255,255,255)">
<ellipse cx="0.5292" cy="2.6458" rx="0.5292" ry="0.5292" />
<ellipse cx="4.7625" cy="2.6458" rx="0.5292" ry="0.5292" />
<ellipse cx="6.8791" cy="2.6458" rx="0.5292" ry="0.5292" />
<ellipse cx="13.2291" cy="2.6458" rx="0.5292" ry="0.5292" />
<ellipse cx="17.4624" cy="2.6458" rx="0.5292" ry="0.5292" />
<ellipse cx="19.5790" cy="2.6458" rx="0.5292" ry="0.5292" />
<ellipse cx="21.6956" cy="2.6458" rx="0.5292" ry="0.5292" />
<ellipse cx="28.0456" cy="2.6458" rx="0.5292" ry="0.5292" />
<ellipse cx="32.2789" cy="2.6458" rx="0.5292" ry="0.5292" />
<ellipse cx="34.3955" cy="2.6458" rx="0.5292" ry="0.5292" />
<ellipse cx="40.7455" cy="2.6458" rx="0.5292" ry="0.5292" />
<ellipse cx="42.8621" cy="2.6458" rx="0.5292" ry="0.5292" />
<ellipse cx="49.2121" cy="2.6458" rx="0.5292" ry="0.5292" />
<ellipse cx="51.3287" cy="2.6458" rx="0.5292" ry="0.5292" />
<ellipse cx="53.4454" cy="2.6458" rx="0.5292" ry="0.5292" />
<ellipse cx="55.5620" cy="2.6458" rx="0.5292" ry="0.5292" />
</g>
<g fill="rgb(255,255,255)">
<ellipse cx="1.5875" cy="3.7041" rx="0.5292" ry="0.5292" />
<ellipse cx="5.8208" cy="3.7041" rx="0.5292" ry="0.5292" />
<ellipse cx="10.0541" cy="3.7041" rx="0.5292" ry="0.5292" />
<ellipse cx="16.4040" cy="3.7041" rx="0.5292" ry="0.5292" />
<ellipse cx="18.5207" cy="3.7041" rx="0.5292" ry="0.5292" />
<ellipse cx="20.6373" cy="3.7041" rx="0.5292" ry="0.5292" />
<ellipse cx="26.9873" cy="3.7041" rx="0.5292" ry="0.5292" />
<ellipse cx="29.1039" cy="3.7041" rx="0.5292" ry="0.5292" />
<ellipse cx="35.4539" cy="3.7041" rx="0.5292" ry="0.5292" />
<ellipse cx="37.5705" cy="3.7041" rx="0.5292" ry="0.5292" />
<ellipse cx="43.9205" cy="3.7041" rx="0.5292" ry="0.5292" />
<ellipse cx="48.1538" cy="3.7041" rx="0.5292" ry="0.5292" />
<ellipse cx="50.2704" cy="3.7041" rx="0.5292" ry="0.5292" />
<ellipse cx="52.3871" cy="3.7041" rx="0.5292" ry="0.5292" />
<ellipse cx="58.7370" cy="3.7041" rx="0.5292" ry="0.5292" />
</g>
<g fill="rgb(255,255,255)">
<ellipse cx="2.6458" cy="4.7625" rx="0.5292" ry="0.5292" />
<ellipse cx="4.7625" cy="4.7625" rx="0.5292" ry="0.5292" />
<ellipse cx="8.9958" cy="4.7625" rx="0.5292" ry="0.5292" />
<ellipse cx="11.1124" cy="4.7625" rx="0.5292" ry="0.5292" />
<ellipse cx="17.4624" cy="4.7625" rx="0.5292" ry="0.5292" />
<ellipse cx="19.5790" cy="4.7625" rx="0.5292" ry="0.5292" />
<ellipse cx="21.6956" cy="4.7625" rx="0.5292" ry="0.5292" />
<ellipse cx="25.9289" cy="4.7625" rx="0.5292" ry="0.5292" />
<ellipse cx="28.0456" cy="4.7625" rx="0.5292" ry="0.5292" />
<ellipse cx="30.1622" cy="4.7625" rx="0.5292" ry="0.5292" />
<ellipse cx="38.6288" cy="4.7625" rx="0.5292" ry="0.5292" />
<ellipse cx="40.7455" cy="4.7625" rx="0.5292" ry="0.5292" />
<ellipse cx="44.9788" cy="4.7625" rx="0.5292" ry="0.5292" />
<ellipse cx="49.2121" cy="4.7625" rx="0.5292" ry="0.5292" />
<ellipse cx="51.3287" cy="4.7625" rx="0.5292" ry="0.5292" />
<ellipse cx="57.6787" cy="4.7625" rx="0.5292" ry="0.5292" />
</g>
<g fill="rgb(255,255,255)">
<ellipse cx="1.5875" cy="5.8208" rx="0.5292" ry="0.5292" />
<ellipse cx="3.7041" cy="5.8208" rx="0.5292" ry="0.5292" />
<ellipse cx="10.0541" cy="5.8208" rx="0.5292" ry="0.5292" />
<ellipse cx="12.1707" cy="5.8208" rx="0.5292" ry="0.5292" />
<ellipse cx="16.4040" cy="5.8208" rx="0.5292" ry="0.5292" />
<ellipse cx="20.6373" cy="5.8208" rx="0.5292" ry="0.5292" />
<ellipse cx="24.8706" cy="5.8208" rx="0.5292" ry="0.5292" />
<ellipse cx="26.9873" cy="5.8208" rx="0.5292" ry="0.5292" />
<ellipse cx="35.4539" cy="5.8208" rx="0.5292" ry="0.5292" />
<ellipse cx="37.5705" cy="5.8208" rx="0.5292" ry="0.5292" />
<ellipse cx="39.6872" cy="5.8208" rx="0.5292" ry="0.5292" />
<ellipse cx="41.8038" cy="5.8208" rx="0.5292" ry="0.5292" />
<ellipse cx="43.9205" cy="5.8208" rx="0.5292" ry="0.5292" />
<ellipse cx="50.2704" cy="5.8208" rx="0.5292" ry="0.5292" />
<ellipse cx="52.3871" cy="5.8208" rx="0.5292" ry="0.5292" />
<ellipse cx="56.6204" cy="5.8208" rx="0.5292" ry="0.5292" />
</g>
<g fill="rgb(255,255,255)">
<ellipse cx="0.5292" cy="6.8791" rx="0.5292" ry="0.5292" />
<ellipse cx="2.6458" cy="6.8791" rx="0.5292" ry="0.5292" />
<ellipse cx="8.9958" cy="6.8791" rx="0.5292" ry="0.5292" />
<ellipse cx="11.1124" cy="6.8791" rx="0.5292" ry="0.5292" />
<ellipse cx="13.2291" cy="6.8791" rx="0.5292" ry="0.5292" />
<ellipse cx="15.3457" cy="6.8791" rx="0.5292" ry="0.5292" />
<ellipse cx="21.6956" cy="6.8791" rx="0.5292" ry="0.5292" />
<ellipse cx="23.8123" cy="6.8791" rx="0.5292" ry="0.5292" />
<ellipse cx="25.9289" cy="6.8791" rx="0.5292" ry="0.5292" />
<ellipse cx="30.1622" cy="6.8791" rx="0.5292" ry="0.5292" />
<ellipse cx="38.6288" cy="6.8791" rx="0.5292" ry="0.5292" />
<ellipse cx="40.7455" cy="6.8791" rx="0.5292" ry="0.5292" />
<ellipse cx="44.9788" cy="6.8791" rx="0.5292" ry="0.5292" />
<ellipse cx="49.2121" cy="6.8791" rx="0.5292" ry="0.5292" />
<ellipse cx="53.4454" cy="6.8791" rx="0.5292" ry="0.5292" />
<ellipse cx="55.5620" cy="6.8791" rx="0.5292" ry="0.5292" />
</g>
<g fill="rgb(255,255,255)">
<ellipse cx="3.7041" cy="7.9374" rx="0.5292" ry="0.5292" />
<ellipse cx="5.8208" cy="7.9374" rx="0.5292" ry="0.5292" />
<ellipse cx="10.0541" cy="7.9374" rx="0.5292" ry="0.5292" />
<ellipse cx="12.1707" cy="7.9374" rx="0.5292" ry="0.5292" />
<ellipse cx="18.5207" cy="7.9374" rx="0.5292" ry="0.5292" />
<ellipse cx="20.6373" cy="7.9374" rx="0.5292" ry="0.5292" />
<ellipse cx="24.8706" cy="7.9374" rx="0.5292" ry="0.5292" />
<ellipse cx="26.9873" cy="7.9374" rx="0.5292" ry="0.5292" />
<ellipse cx="29.1039" cy="7.9374" rx="0.5292" ry="0.5292" />
<ellipse cx="35.4539" cy="7.9374" rx="0.5292" ry="0.5292" />
<ellipse cx="41.8038" cy="7.9374" rx="0.5292" ry="0.5292" />
<ellipse cx="43.9205" cy="7.9374" rx="0.5292" ry="0.5292" />
<ellipse cx="46.0371" cy="7.9374" rx="0.5292" ry="0.5292" />
<ellipse cx="54.5037" cy="7.9374" rx="0.5292" ry="0.5292" />
<ellipse cx="56.6204" cy="7.9374" rx="0.5292" ry="0.5292" />
</g>
<g fill="rgb(255,255,255)">
<ellipse cx="6.8791" cy="8.9958" rx="0.5292" ry="0.5292" />
<ellipse cx="11.1124" cy="8.9958" rx="0.5292" ry="0.5292" />
<ellipse cx="13.2291" cy="8.9958" rx="0.5292" ry="0.5292" />
<ellipse cx="15.3457" cy="8.9958" rx="0.5292" ry="0.5292" />
<ellipse cx="19.5790" cy="8.9958" rx="0.5292" ry="0.5292" />
<ellipse cx="23.8123" cy="8.9958" rx="0.5292" ry="0.5292" />
<ellipse cx="30.1622" cy="8.9958" rx="0.5292" ry="0.5292" />
<ellipse cx="34.3955" cy="8.9958" rx="0.5292" ry="0.5292" />
<ellipse cx="38.6288" cy="8.9958" rx="0.5292" ry="0.5292" />
<ellipse cx="40.7455" cy="8.9958" rx="0.5292" ry="0.5292" />
<ellipse cx="42.8621" cy="8.9958" rx="0.5292" ry="0.5292" />
<ellipse cx="51.3287" cy="8.9958" rx="0.5292" ry="0.5292" />
<ellipse cx="53.4454" cy="8.9958" rx="0.5292" ry="0.5292" />
<ellipse cx="57.6787" cy="8.9958" rx="0.5292" ry="0.5292" />
</g>
<g fill="rgb(255,255,255)">
<ellipse cx="3.7041" cy="10.0541" rx="0.5292" ry="0.5292" />
<ellipse cx="10.0541" cy="10.0541" rx="0.5292" ry="0.5292" />
<ellipse cx="16.4040" cy="10.0541" rx="0.5292" ry="0.5292" />
<ellipse cx="20.6373" cy="10.0541" rx="0.5292" ry="0.5292" />
<ellipse cx="22.7540" cy="10.0541" rx="0.5292" ry="0.5292" />
<ellipse cx="26.9873" cy="10.0541" rx="0.5292" ry="0.5292" />
<ellipse cx="29.1039" cy="10.0541" rx="0.5292" ry="0.5292" />
<ellipse cx="31.2206" cy="10.0541" rx="0.5292" ry="0.5292" />
<ellipse cx="35.4539" cy="10.0541" rx="0.5292" ry="0.5292" />
<ellipse cx="43.9205" cy="10.0541" rx="0.5292" ry="0.5292" />
<ellipse cx="46.0371" cy="10.0541" rx="0.5292" ry="0.5292" />
<ellipse cx="48.1538" cy="10.0541" rx="0.5292" ry="0.5292" />
<ellipse cx="50.2704" cy="10.0541" rx="0.5292" ry="0.5292" />
<ellipse cx="52.3871" cy="10.0541" rx="0.5292" ry="0.5292" />
<ellipse cx="54.5037" cy="10.0541" rx="0.5292" ry="0.5292" />
<ellipse cx="58.7370" cy="10.0541" rx="0.5292" ry="0.5292" />
</g>
<g fill="rgb(255,255,255)">
<ellipse cx="2.6458" cy="11.1124" rx="0.5292" ry="0.5292" />
<ellipse cx="4.7625" cy="11.1124" rx="0.5292" ry="0.5292" />
<ellipse cx="11.1124" cy="11.1124" rx="0.5292" ry="0.5292" />
<ellipse cx="13.2291" cy="11.1124" rx="0.5292" ry="0.5292" />
<ellipse cx="15.3457" cy="11.1124" rx="0.5292" ry="0.5292" />
<ellipse cx="19.5790" cy="11.1124" rx="0.5292" ry="0.5292" />
<ellipse cx="21.6956" cy="11.1124" rx="0.5292" ry="0.5292" />
<ellipse cx="30.1622" cy="11.1124" rx="0.5292" ry="0.5292" />
<ellipse cx="32.2789" cy="11.1124" rx="0.5292" ry="0.5292" />
<ellipse cx="40.7455" cy="11.1124" rx="0.5292" ry="0.5292" />
<ellipse cx="44.9788" cy="11.1124" rx="0.5292" ry="0.5292" />
<ellipse cx="47.0954" cy="11.1124" rx="0.5292" ry="0.5292" />
<ellipse cx="49.2121" cy="11.1124" rx="0.5292" ry="0.5292" />
<ellipse cx="51.3287" cy="11.1124" rx="0.5292" ry="0.5292" />
<ellipse cx="53.4454" cy="11.1124" rx="0.5292" ry="0.5292" />
<ellipse cx="57.6787" cy="11.1124" rx="0.5292" ry="0.5292" />
</g>
<g fill="rgb(255,255,255)">
<ellipse cx="1.5875" cy="12.1707" rx="0.5292" ry="0.5292" />
<ellipse cx="10.0541" cy="12.1707" rx="0.5292" ry="0.5292" />
<ellipse cx="12.1707" cy="12.1707" rx="0.5292" ry="0.5292" />
<ellipse cx="16.4040" cy="12.1707" rx="0.5292" ry="0.5292" />
<ellipse cx="20.6373" cy="12.1707" rx="0.5292" ry="0.5292" />
<ellipse cx="22.7540" cy="12.1707" rx="0.5292" ry="0.5292" />
<ellipse cx="26.9873" cy="12.1707" rx="0.5292" ry="0.5292" />
<ellipse cx="29.1039" cy="12.1707" rx="0.5292" ry="0.5292" />
<ellipse cx="37.5705" cy="12.1707" rx="0.5292" ry="0.5292" />
<ellipse cx="41.8038" cy="12.1707" rx="0.5292" ry="0.5292" />
<ellipse cx="46.0371" cy="12.1707" rx="0.5292" ry="0.5292" />
<ellipse cx="48.1538" cy="12.1707" rx="0.5292" ry="0.5292" />
<ellipse cx="52.3871" cy="12.1707" rx="0.5292" ry="0.5292" />
<ellipse cx="56.6204" cy="12.1707" rx="0.5292" ry="0.5292" />
<ellipse cx="58.7370" cy="12.1707" rx="0.5292" ry="0.5292" />
</g>
<g fill="rgb(255,255,255)">
<ellipse cx="4.7625" cy="13.2291" rx="0.5292" ry="0.5292" />
<ellipse cx="6.8791" cy="13.2291" rx="0.5292" ry="0.5292" />
<ellipse cx="11.1124" cy="13.2291" rx="0.5292" ry="0.5292" />
<ellipse cx="13.2291" cy="13.2291" rx="0.5292" ry="0.5292" />
<ellipse cx="17.4624" cy="13.2291" rx="0.5292" ry="0.5292" />
<ellipse cx="19.5790" cy="13.2291" rx="0.5292" ry="0.5292" />
<ellipse cx="23.8123" cy="13.2291" rx="0.5292" ry="0.5292" />
<ellipse cx="25.9289" cy="13.2291" rx="0.5292" ry="0.5292" />
<ellipse cx="30.1622" cy="13.2291" rx="0.5292" ry="0.5292" />
<ellipse cx="38.6288" cy="13.2291" rx="0.5292" ry="0.5292" />
<ellipse cx="40.7455" cy="13.2291" rx="0.5292" ry="0.5292" />
<ellipse cx="44.9788" cy="13.2291" rx="0.5292" ry="0.5292" />
<ellipse cx="47.0954" cy="13.2291" rx="0.5292" ry="0.5292" />
<ellipse cx="53.4454" cy="13.2291" rx="0.5292" ry="0.5292" />
<ellipse cx="55.5620" cy="13.2291" rx="0.5292" ry="0.5292" />
<ellipse cx="57.6787" cy="13.2291" rx="0.5292" ry="0.5292" />
</g>
<g fill="rgb(255,255,255)">
<ellipse cx="1.5875" cy="14.2874" rx="0.5292" ry="0.5292" />
<ellipse cx="5.8208" cy="14.2874" rx="0.5292" ry="0.5292" />
<ellipse cx="12.1707" cy="14.2874" rx="0.5292" ry="0.5292" />
<ellipse cx="14.2874" cy="14.2874" rx="0.5292" ry="0.5292" />
<ellipse cx="16.4040" cy="14.2874" rx="0.5292" ry="0.5292" />
<ellipse cx="20.6373" cy="14.2874" rx="0.5292" ry="0.5292" />
<ellipse cx="22.7540" cy="14.2874" rx="0.5292" ry="0.5292" />
<ellipse cx="29.1039" cy="14.2874" rx="0.5292" ry="0.5292" />
<ellipse cx="31.2206" cy="14.2874" rx="0.5292" ry="0.5292" />
<ellipse cx="37.5705" cy="14.2874" rx="0.5292" ry="0.5292" />
<ellipse cx="41.8038" cy="14.2874" rx="0.5292" ry="0.5292" />
<ellipse cx="43.9205" cy="14.2874" rx="0.5292" ry="0.5292" />
<ellipse cx="46.0371" cy="14.2874" rx="0.5292" ry="0.5292" />
<ellipse cx="48.1538" cy="14.2874" rx="0.5292" ry="0.5292" />
<ellipse cx="56.6204" cy="14.2874" rx="0.5292" ry="0.5292" />
<ellipse cx="58.7370" cy="14.2874" rx="0.5292" ry="0.5292" />
</g>
<g fill="rgb(255,255,255)">
<ellipse cx="4.7625" cy="15.3457" rx="0.5292" ry="0.5292" />
<ellipse cx="6.8791" cy="15.3457" rx="0.5292" ry="0.5292" />
<ellipse cx="13.2291" cy="15.3457" rx="0.5292" ry="0.5292" />
<ellipse cx="15.3457" cy="15.3457" rx="0.5292" ry="0.5292" />
<ellipse cx="19.5790" cy="15.3457" rx="0.5292" ry="0.5292" />
<ellipse cx="23.8123" cy="15.3457" rx="0.5292" ry="0.5292" />
<ellipse cx="28.0456" cy="15.3457" rx="0.5292" ry="0.5292" />
<ellipse cx="32.2789" cy="15.3457" rx="0.5292" ry="0.5292" />
<ellipse cx="34.3955" cy="15.3457" rx="0.5292" ry="0.5292" />
<ellipse cx="36.5122" cy="15.3457" rx="0.5292" ry="0.5292" />
<ellipse cx="44.9788" cy="15.3457" rx="0.5292" ry="0.5292" />
<ellipse cx="47.0954" cy="15.3457" rx="0.5292" ry="0.5292" />
<ellipse cx="49.2121" cy="15.3457" rx="0.5292" ry="0.5292" />
<ellipse cx="53.4454" cy="15.3457" rx="0.5292" ry="0.5292" />
<ellipse cx="57.6787" cy="15.3457" rx="0.5292" ry="0.5292" />
</g>
<g fill="rgb(255,255,255)">
<ellipse cx="3.7041" cy="16.4040" rx="0.5292" ry="0.5292" />
<ellipse cx="7.9374" cy="16.4040" rx="0.5292" ry="0.5292" />
<ellipse cx="10.0541" cy="16.4040" rx="0.5292" ry="0.5292" />
<ellipse cx="12.1707" cy="16.4040" rx="0.5292" ry="0.5292" />
<ellipse cx="16.4040" cy="16.4040" rx="0.5292" ry="0.5292" />
<ellipse cx="22.7540" cy="16.4040" rx="0.5292" ry="0.5292" />
<ellipse cx="24.8706" cy="16.4040" rx="0.5292" ry="0.5292" />
<ellipse cx="29.1039" cy="16.4040" rx="0.5292" ry="0.5292" />
<ellipse cx="31.2206" cy="16.4040" rx="0.5292" ry="0.5292" />
<ellipse cx="35.4539" cy="16.4040" rx="0.5292" ry="0.5292" />
<ellipse cx="39.6872" cy="16.4040" rx="0.5292" ry="0.5292" />
<ellipse cx="46.0371" cy="16.4040" rx="0.5292" ry="0.5292" />
<ellipse cx="48.1538" cy="16.4040" rx="0.5292" ry="0.5292" />
<ellipse cx="50.2704" cy="16.4040" rx="0.5292" ry="0.5292" />
<ellipse cx="52.3871" cy="16.4040" rx="0.5292" ry="0.5292" />
<ellipse cx="56.6204" cy="16.4040" rx="0.5292" ry="0.5292" />
</g>
<g fill="rgb(255,255,255)">
<ellipse cx="0.5292" cy="17.4624" rx="0.5292" ry="0.5292" />
<ellipse cx="2.6458" cy="17.4624" rx="0.5292" ry="0.5292" />
<ellipse cx="4.7625" cy="17.4624" rx="0.5292" ry="0.5292" />
<ellipse cx="6.8791" cy="17.4624" rx="0.5292" ry="0.5292" />
<ellipse cx="8.9958" cy="17.4624" rx="0.5292" ry="0.5292" />
<ellipse cx="17.4624" cy="17.4624" rx="0.5292" ry="0.5292" />
<ellipse cx="19.5790" cy="17.4624" rx="0.5292" ry="0.5292" />
<ellipse cx="21.6956" cy="17.4624" rx="0.5292" ry="0.5292" />
<ellipse cx="25.9289" cy="17.4624" rx="0.5292" ry="0.5292" />
<ellipse cx="30.1622" cy="17.4624" rx="0.5292" ry="0.5292" />
<ellipse cx="34.3955" cy="17.4624" rx="0.5292" ry="0.5292" />
<ellipse cx="36.5122" cy="17.4624" rx="0.5292" ry="0.5292" />
<ellipse cx="40.7455" cy="17.4624" rx="0.5292" ry="0.5292" />
<ellipse cx="47.0954" cy="17.4624" rx="0.5292" ry="0.5292" />
<ellipse cx="53.4454" cy="17.4624" rx="0.5292" ry="0.5292" />
<ellipse cx="55.5620" cy="17.4624" rx="0.5292" ry="0.5292" />
<ellipse cx="57.6787" cy="17.4624" rx="0.5292" ry="0.5292" />
</g>
<g fill="rgb(255,255,255)">
<ellipse cx="1.5875" cy="18.5207" rx="0.5292" ry="0.5292" />
<ellipse cx="3.7041" cy="18.5207" rx="0.5292" ry="0.5292" />
<ellipse cx="5.8208" cy="18.5207" rx="0.5292" ry="0.5292" />
<ellipse cx="7.9374" cy="18.5207" rx="0.5292" ry="0.5292" />
<ellipse cx="12.1707" cy="18.5207" rx="0.5292" ry="0.5292" />
<ellipse cx="14.2874" cy="18.5207" rx="0.5292" ry="0.5292" />
<ellipse cx="16.4040" cy="18.5207" rx="0.5292" ry="0.5292" />
<ellipse cx="18.5207" cy="18.5207" rx="0.5292" ry="0.5292" />
<ellipse cx="24.8706" cy="18.5207" rx="0.5292" ry="0.5292" />
<ellipse cx="31.2206" cy="18.5207" rx="0.5292" ry="0.5292" />
<ellipse cx="35.4539" cy="18.5207" rx="0.5292" ry="0.5292" />
<ellipse cx="37.5705" cy="18.5207" rx="0.5292" ry="0.5292" />
<ellipse cx="39.6872" cy="18.5207" rx="0.5292" ry="0.5292" />
<ellipse cx="41.8038" cy="18.5207" rx="0.5292" ry="0.5292" />
<ellipse cx="50.2704" cy="18.5207" rx="0.5292" ry="0.5292" />
<ellipse cx="52.3871" cy="18.5207" rx="0.5292" ry="0.5292" />
</g>
<g fill="rgb(255,255,255)">
<ellipse cx="4.7625" cy="19.5790" rx="0.5292" ry="0.5292" />
<ellipse cx="6.8791" cy="19.5790" rx="0.5292" ry="0.5292" />
<ellipse cx="8.9958" cy="19.5790" rx="0.5292" ry="0.5292" />
<ellipse cx="13.2291" cy="19.5790" rx="0.5292" ry="0.5292" />
<ellipse cx="15.3457" cy="19.5790" rx="0.5292" ry="0.5292" />
<ellipse cx="17.4624" cy="19.5790" rx="0.5292" ry="0.5292" />
<ellipse cx="21.6956" cy="19.5790" rx="0.5292" ry="0.5292" />
<ellipse cx="25.9289" cy="19.5790" rx="0.5292" ry="0.5292" />
<ellipse cx="34.3955" cy="19.5790" rx="0.5292" ry="0.5292" />
<ellipse cx="38.6288" cy="19.5790" rx="0.5292" ry="0.5292" />
<ellipse cx="40.7455" cy="19.5790" rx="0.5292" ry="0.5292" />
<ellipse cx="42.8621" cy="19.5790" rx="0.5292" ry="0.5292" />
<ellipse cx="47.0954" cy="19.5790" rx="0.5292" ry="0.5292" />
<ellipse cx="53.4454" cy="19.5790" rx="0.5292" ry="0.5292" />
</g>
<g fill="rgb(255,255,255)">
<ellipse cx="1.5875" cy="20.6373" rx="0.5292" ry="0.5292" />
<ellipse cx="3.7041" cy="20.6373" rx="0.5292" ry="0.5292" />
<ellipse cx="7.9374" cy="20.6373" rx="0.5292" ry="0.5292" />
<ellipse cx="14.2874" cy="20.6373" rx="0.5292" ry="0.5292" />
<ellipse cx="22.7540" cy="20.6373" rx="0.5292" ry="0.5292" />
<ellipse cx="24.8706" cy="20.6373" rx="0.5292" ry="0.5292" />
<ellipse cx="26.9873" cy="20.6373" rx="0.5292" ry="0.5292" />
<ellipse cx="31.2206" cy="20.6373" rx="0.5292" ry="0.5292" />
<ellipse cx="37.5705" cy="20.6373" rx="0.5292" ry="0.5292" />
<ellipse cx="41.8038" cy="20.6373" rx="0.5292" ry="0.5292" />
<ellipse cx="43.9205" cy="20.6373" rx="0.5292" ry="0.5292" />
<ellipse cx="48.1538" cy="20.6373" rx="0.5292" ry="0.5292" />
<ellipse cx="50.2704" cy="20.6373" rx="0.5292" ry="0.5292" />
<ellipse cx="56.6204" cy="20.6373" rx="0.5292" ry="0.5292" />
<ellipse cx="58.7370" cy="20.6373" rx="0.5292" ry="0.5292" />
</g>
<g fill="rgb(255,255,255)">
<ellipse cx="4.7625" cy="21.6956" rx="0.5292" ry="0.5292" />
<ellipse cx="6.8791" cy="21.6956" rx="0.5292" ry="0.5292" />
<ellipse cx="8.9958" cy="21.6956" rx="0.5292" ry="0.5292" />
<ellipse cx="15.3457" cy="21.6956" rx="0.5292" ry="0.5292" />
<ellipse cx="19.5790" cy="21.6956" rx="0.5292" ry="0.5292" />
<ellipse cx="23.8123" cy="21.6956" rx="0.5292" ry="0.5292" />
<ellipse cx="25.9289" cy="21.6956" rx="0.5292" ry="0.5292" />
<ellipse cx="32.2789" cy="21.6956" rx="0.5292" ry="0.5292" />
<ellipse cx="34.3955" cy="21.6956" rx="0.5292" ry="0.5292" />
<ellipse cx="40.7455" cy="21.6956" rx="0.5292" ry="0.5292" />
<ellipse cx="44.9788" cy="21.6956" rx="0.5292" ry="0.5292" />
<ellipse cx="47.0954" cy="21.6956" rx="0.5292" ry="0.5292" />
<ellipse cx="49.2121" cy="21.6956" rx="0.5292" ry="0.5292" />
<ellipse cx="53.4454" cy="21.6956" rx="0.5292" ry="0.5292" />
<ellipse cx="57.6787" cy="21.6956" rx="0.5292" ry="0.5292" />
</g>
<g fill="rgb(255,255,255)">
<ellipse cx="1.5875" cy="22.7540" rx="0.5292" ry="0.5292" />
<ellipse cx="3.7041" cy="22.7540" rx="0.5292" ry="0.5292" />
<ellipse cx="5.8208" cy="22.7540" rx="0.5292" ry="0.5292" />
<ellipse cx="7.9374" cy="22.7540" rx="0.5292" ry="0.5292" />
<ellipse cx="12.1707" cy="22.7540" rx="0.5292" ry="0.5292" />
<ellipse cx="18.5207" cy="22.7540" rx="0.5292" ry="0.5292" />
<ellipse cx="20.6373" cy="22.7540" rx="0.5292" ry="0.5292" />
<ellipse cx="22.7540" cy="22.7540" rx="0.5292" ry="0.5292" />
<ellipse cx="26.9873" cy="22.7540" rx="0.5292" ry="0.5292" />
<ellipse cx="35.4539" cy="22.7540" rx="0.5292" ry="0.5292" />
<ellipse cx="37.5705" cy="22.7540" rx="0.5292" ry="0.5292" />
<ellipse cx="39.6872" cy="22.7540" rx="0.5292" ry="0.5292" />
<ellipse cx="41.8038" cy="22.7540" rx="0.5292" ry="0.5292" />
<ellipse cx="50.2704" cy="22.7540" rx="0.5292" ry="0.5292" />
<ellipse cx="54.5037" cy="22.7540" rx="0.5292" ry="0.5292" />
<ellipse cx="56.6204" cy="22.7540" rx="0.5292" ry="0.5292" />
<ellipse cx="58.7370" cy="22.7540" rx="0.5292" ry="0.5292" />
</g>
<g fill="rgb(255,255,255)">
<ellipse cx="0.5292" cy="23.8123" rx="0.5292" ry="0.5292" />
<ellipse cx="6.8791" cy="23.8123" rx="0.5292" ry="0.5292" />
<ellipse cx="8.9958" cy="23.8123" rx="0.5292" ry="0.5292" />
<ellipse cx="15.3457" cy="23.8123" rx="0.5292" ry="0.5292" />
<ellipse cx="17.4624" cy="23.8123" rx="0.5292" ry="0.5292" />
<ellipse cx="19.5790" cy="23.8123" rx="0.5292" ry="0.5292" />
<ellipse cx="21.6956" cy="23.8123" rx="0.5292" ry="0.5292" />
<ellipse cx="30.1622" cy="23.8123" rx="0.5292" ry="0.5292" />
<ellipse cx="32.2789" cy="23.8123" rx="0.5292" ry="0.5292" />
<ellipse cx="36.5122" cy="23.8123" rx="0.5292" ry="0.5292" />
<ellipse cx="40.7455" cy="23.8123" rx="0.5292" ry="0.5292" />
<ellipse cx="42.8621" cy="23.8123" rx="0.5292" ry="0.5292" />
<ellipse cx="51.3287" cy="23.8123" rx="0.5292" ry="0.5292" />
<ellipse cx="53.4454" cy="23.8123" rx="0.5292" ry="0.5292" />
<ellipse cx="55.5620" cy="23.8123" rx="0.5292" ry="0.5292" />
</g>
<g fill="rgb(255,255,255)">
<ellipse cx="3.7041" cy="24.8706" rx="0.5292" ry="0.5292" />
<ellipse cx="5.8208" cy="24.8706" rx="0.5292" ry="0.5292" />
<ellipse cx="12.1707" cy="24.8706" rx="0.5292" ry="0.5292" />
<ellipse cx="18.5207" cy="24.8706" rx="0.5292" ry="0.5292" />
<ellipse cx="20.6373" cy="24.8706" rx="0.5292" ry="0.5292" />
<ellipse cx="26.9873" cy="24.8706" rx="0.5292" ry="0.5292" />
<ellipse cx="29.1039" cy="24.8706" rx="0.5292" ry="0.5292" />
<ellipse cx="31.2206" cy="24.8706" rx="0.5292" ry="0.5292" />
<ellipse cx="37.5705" cy="24.8706" rx="0.5292" ry="0.5292" />
<ellipse cx="39.6872" cy="24.8706" rx="0.5292" ry="0.5292" />
<ellipse cx="41.8038" cy="24.8706" rx="0.5292" ry="0.5292" />
<ellipse cx="46.0371" cy="24.8706" rx="0.5292" ry="0.5292" />
<ellipse cx="50.2704" cy="24.8706" rx="0.5292" ry="0.5292" />
<ellipse cx="52.3871" cy="24.8706" rx="0.5292" ry="0.5292" />
<ellipse cx="56.6204" cy="24.8706" rx="0.5292" ry="0.5292" />
</g>
<g fill="rgb(255,255,255)">
<ellipse cx="0.5292" cy="25.9289" rx="0.5292" ry="0.5292" />
<ellipse cx="8.9958" cy="25.9289" rx="0.5292" ry="0.5292" />
<ellipse cx="11.1124" cy="25.9289" rx="0.5292" ry="0.5292" />
<ellipse cx="15.3457" cy="25.9289" rx="0.5292" ry="0.5292" />
<ellipse cx="17.4624" cy="25.9289" rx="0.5292" ry="0.5292" />
<ellipse cx="19.5790" cy="25.9289" rx="0.5292" ry="0.5292" />
<ellipse cx="25.9289" cy="25.9289" rx="0.5292" ry="0.5292" />
<ellipse cx="28.0456" cy="25.9289" rx="0.5292" ry="0.5292" />
<ellipse cx="34.3955" cy="25.9289" rx="0.5292" ry="0.5292" />
<ellipse cx="36.5122" cy="25.9289" rx="0.5292" ry="0.5292" />
<ellipse cx="40.7455" cy="25.9289" rx="0.5292" ry="0.5292" />
<ellipse cx="44.9788" cy="25.9289" rx="0.5292" ry="0.5292" />
<ellipse cx="47.0954" cy="25.9289" rx="0.5292" ry="0.5292" />
<ellipse cx="53.4454" cy="25.9289" rx="0.5292" ry="0.5292" />
<ellipse cx="55.5620" cy="25.9289" rx="0.5292" ry="0.5292" />
<ellipse cx="57.6787" cy="25.9289" rx="0.5292" ry="0.5292" />
</g>
<g fill="rgb(255,255,255)">
<ellipse cx="1.5875" cy="26.9873" rx="0.5292" ry="0.5292" />
<ellipse cx="7.9374" cy="26.9873" rx="0.5292" ry="0.5292" />
<ellipse cx="10.0541" cy="26.9873" rx="0.5292" ry="0.5292" />
<ellipse cx="12.1707" cy="26.9873" rx="0.5292" ry="0.5292" />
<ellipse cx="16.4040" cy="26.9873" rx="0.5292" ry="0.5292" />
<ellipse cx="24.8706" cy="26.9873" rx="0.5292" ry="0.5292" />
<ellipse cx="29.1039" cy="26.9873" rx="0.5292" ry="0.5292" />
<ellipse cx="33.3372" cy="26.9873" rx="0.5292" ry="0.5292" />
<ellipse cx="37.5705" cy="26.9873" rx="0.5292" ry="0.5292" />
<ellipse cx="41.8038" cy="26.9873" rx="0.5292" ry="0.5292" />
<ellipse cx="43.9205" cy="26.9873" rx="0.5292" ry="0.5292" />
<ellipse cx="48.1538" cy="26.9873" rx="0.5292" ry="0.5292" />
<ellipse cx="50.2704" cy="26.9873" rx="0.5292" ry="0.5292" />
<ellipse cx="52.3871" cy="26.9873" rx="0.5292" ry="0.5292" />
<ellipse cx="54.5037" cy="26.9873" rx="0.5292" ry="0.5292" />
</g>
<g fill="rgb(255,255,255)">
<ellipse cx="2.6458" cy="28.0456" rx="0.5292" ry="0.5292" />
<ellipse cx="4.7625" cy="28.0456" rx="0.5292" ry="0.5292" />
<ellipse cx="8.9958" cy="28.0456" rx="0.5292" ry="0.5292" />
<ellipse cx="17.4624" cy="28.0456" rx="0.5292" ry="0.5292" />
<ellipse cx="21.6956" cy="28.0456" rx="0.5292" ry="0.5292" />
<ellipse cx="23.8123" cy="28.0456" rx="0.5292" ry="0.5292" />
<ellipse cx="25.9289" cy="28.0456" rx="0.5292" ry="0.5292" />
<ellipse cx="28.0456" cy="28.0456" rx="0.5292" ry="0.5292" />
<ellipse cx="30.1622" cy="28.0456" rx="0.5292" ry="0.5292" />
<ellipse cx="32.2789" cy="28.0456" rx="0.5292" ry="0.5292" />
<ellipse cx="36.5122" cy="28.0456" rx="0.5292" ry="0.5292" />
<ellipse cx="40.7455" cy="28.0456" rx="0.5292" ry="0.5292" />
<ellipse cx="49.2121" cy="28.0456" rx="0.5292" ry="0.5292" />
<ellipse cx="53.4454" cy="28.0456" rx="0.5292" ry="0.5292" />
<ellipse cx="55.5620" cy="28.0456" rx="0.5292" ry="0.5292" />
<ellipse cx="57.6787" cy="28.0456" rx="0.5292" ry="0.5292" />
</g>
<g fill="rgb(255,255,255)">
<ellipse cx="1.5875" cy="29.1039" rx="0.5292" ry="0.5292" />
<ellipse cx="3.7041" cy="29.1039" rx="0.5292" ry="0.5292" />
<ellipse cx="10.0541" cy="29.1039" rx="0.5292" ry="0.5292" />
<ellipse cx="12.1707" cy="29.1039" rx="0.5292" ry="0.5292" />
<ellipse cx="16.4040" cy="29.1039" rx="0.5292" ry="0.5292" />
<ellipse cx="18.5207" cy="29.1039" rx="0.5292" ry="0.5292" />
<ellipse cx="20.6373" cy="29.1039" rx="0.5292" ry="0.5292" />
<ellipse cx="22.7540" cy="29.1039" rx="0.5292" ry="0.5292" />
<ellipse cx="33.3372" cy="29.1039" rx="0.5292" ry="0.5292" />
<ellipse cx="35.4539" cy="29.1039" rx="0.5292" ry="0.5292" />
<ellipse cx="39.6872" cy="29.1039" rx="0.5292" ry="0.5292" />
<ellipse cx="46.0371" cy="29.1039" rx="0.5292" ry="0.5292" />
<ellipse cx="48.1538" cy="29.1039" rx="0.5292" ry="0.5292" />
<ellipse cx="52.3871" cy="29.1039" rx="0.5292" ry="0.5292" />
<ellipse cx="56.6204" cy="29.1039" rx="0.5292" ry="0.5292" />
<ellipse cx="58.7370" cy="29.1039" rx="0.5292" ry="0.5292" />
</g>
<g fill="rgb(255,255,255)">
<ellipse cx="4.7625" cy="30.1622" rx="0.5292" ry="0.5292" />
<ellipse cx="6.8791" cy="30.1622" rx="0.5292" ry="0.5292" />
<ellipse cx="8.9958" cy="30.1622" rx="0.5292" ry="0.5292" />
<ellipse cx="13.2291" cy="30.1622" rx="0.5292" ry="0.5292" />
<ellipse cx="15.3457" cy="30.1622" rx="0.5292" ry="0.5292" />
<ellipse cx="19.5790" cy="30.1622" rx="0.5292" ry="0.5292" />
<ellipse cx="23.8123" cy="30.1622" rx="0.5292" ry="0.5292" />
<ellipse cx="25.9289" cy="30.1622" rx="0.5292" ry="0.5292" />
<ellipse cx="32.2789" cy="30.1622" rx="0.5292" ry="0.5292" />
<ellipse cx="34.3955" cy="30.1622" rx="0.5292" ry="0.5292" />
<ellipse cx="36.5122" cy="30.1622" rx="0.5292" ry="0.5292" />
<ellipse cx="40.7455" cy="30.1622" rx="0.5292" ry="0.5292" />
<ellipse cx="44.9788" cy="30.1622" rx="0.5292" ry="0.5292" />
<ellipse cx="51.3287" cy="30.1622" rx="0.5292" ry="0.5292" />
<ellipse cx="57.6787" cy="30.1622" rx="0.5292" ry="0.5292" />
</g>
<g fill="rgb(255,255,255)">
<ellipse cx="1.5875" cy="31.2206" rx="0.5292" ry="0.5292" />
<ellipse cx="7.9374" cy="31.2206" rx="0.5292" ry="0.5292" />
<ellipse cx="14.2874" cy="31.2206" rx="0.5292" ry="0.5292" />
<ellipse cx="16.4040" cy="31.2206" rx="0.5292" ry="0.5292" />
<ellipse cx="18.5207" cy="31.2206" rx="0.5292" ry="0.5292" />
<ellipse cx="22.7540" cy="31.2206" rx="0.5292" ry="0.5292" />
<ellipse cx="26.9873" cy="31.2206" rx="0.5292" ry="0.5292" />
<ellipse cx="31.2206" cy="31.2206" rx="0.5292" ry="0.5292" />
<ellipse cx="35.4539" cy="31.2206" rx="0.5292" ry="0.5292" />
<ellipse cx="37.5705" cy="31.2206" rx="0.5292" ry="0.5292" />
<ellipse cx="41.8038" cy="31.2206" rx="0.5292" ry="0.5292" />
<ellipse cx="46.0371" cy="31.2206" rx="0.5292" ry="0.5292" />
<ellipse cx="50.2704" cy="31.2206" rx="0.5292" ry="0.5292" />
<ellipse cx="56.6204" cy="31.2206" rx="0.5292" ry="0.5292" />
<ellipse cx="58.7370" cy="31.2206" rx="0.5292" ry="0.5292" />
</g>
<g fill="rgb(255,255,255)">
<ellipse cx="4.7625" cy="32.2789" rx="0.5292" ry="0.5292" />
<ellipse cx="6.8791" cy="32.2789" rx="0.5292" ry="0.5292" />
<ellipse cx="11.1124" cy="32.2789" rx="0.5292" ry="0.5292" />
<ellipse cx="13.2291" cy="32.2789" rx="0.5292" ry="0.5292" />
<ellipse cx="15.3457" cy="32.2789" rx="0.5292" ry="0.5292" />
<ellipse cx="21.6956" cy="32.2789" rx="0.5292" ry="0.5292" />
<ellipse cx="28.0456" cy="32.2789" rx="0.5292" ry="0.5292" />
<ellipse cx="30.1622" cy="32.2789" rx="0.5292" ry="0.5292" />
<ellipse cx="32.2789" cy="32.2789" rx="0.5292" ry="0.5292" />
<ellipse cx="34.3955" cy="32.2789" rx="0.5292" ry="0.5292" />
<ellipse cx="38.6288" cy="32.2789" rx="0.5292" ry="0.5292" />
<ellipse cx="40.7455" cy="32.2789" rx="0.5292" ry="0.5292" />
<ellipse cx="47.0954" cy="32.2789" rx="0.5292" ry="0.5292" />
<ellipse cx="49.2121" cy="32.2789" rx="0.5292" ry="0.5292" />
<ellipse cx="53.4454" cy="32.2789" rx="0.5292" ry="0.5292" />
<ellipse cx="55.5620" cy="32.2789" rx="0.5292" ry="0.5292" />
<ellipse cx="57.6787" cy="32.2789" rx="0.5292" ry="0.5292" />
</g>
<g fill="rgb(255,255,255)">
<ellipse cx="1.5875" cy="33.3372" rx="0.5292" ry="0.5292" />
<ellipse cx="3.7041" cy="33.3372" rx="0.5292" ry="0.5292" />
<ellipse cx="5.8208" cy="33.3372" rx="0.5292" ry="0.5292" />
<ellipse cx="14.2874" cy="33.3372" rx="0.5292" ry="0.5292" />
<ellipse cx="16.4040" cy="33.3372" rx="0.5292" ry="0.5292" />
<ellipse cx="20.6373" cy="33.3372" rx="0.5292" ry="0.5292" />
<ellipse cx="24.8706" cy="33.3372" rx="0.5292" ry="0.5292" />
<ellipse cx="29.1039" cy="33.3372" rx="0.5292" ry="0.5292" />
<ellipse cx="31.2206" cy="33.3372" rx="0.5292" ry="0.5292" />
<ellipse cx="35.4539" cy="33.3372" rx="0.5292" ry="0.5292" />
<ellipse cx="43.9205" cy="33.3372" rx="0.5292" ry="0.5292" />
<ellipse cx="46.0371" cy="33.3372" rx="0.5292" ry="0.5292" />
<ellipse cx="50.2704" cy="33.3372" rx="0.5292" ry="0.5292" />
<ellipse cx="54.5037" cy="33.3372" rx="0.5292" ry="0.5292" />
<ellipse cx="56.6204" cy="33.3372" rx="0.5292" ry="0.5292" />
</g>
<g fill="rgb(255,255,255)">
<ellipse cx="4.7625" cy="34.3955" rx="0.5292" ry="0.5292" />
<ellipse cx="6.8791" cy="34.3955" rx="0.5292" ry="0.5292" />
<ellipse cx="8.9958" cy="34.3955" rx="0.5292" ry="0.5292" />
<ellipse cx="15.3457" cy="34.3955" rx="0.5292" ry="0.5292" />
<ellipse cx="19.5790" cy="34.3955" rx="0.5292" ry="0.5292" />
<ellipse cx="21.6956" cy="34.3955" rx="0.5292" ry="0.5292" />
<ellipse cx="23.8123" cy="34.3955" rx="0.5292" ry="0.5292" />
<ellipse cx="25.9289" cy="34.3955" rx="0.5292" ry="0.5292" />
<ellipse cx="30.1622" cy="34.3955" rx="0.5292" ry="0.5292" />
<ellipse cx="34.3955" cy="34.3955" rx="0.5292" ry="0.5292" />
<ellipse cx="40.7455" cy="34.3955" rx="0.5292" ry="0.5292" />
<ellipse cx="42.8621" cy="34.3955" rx="0.5292" ry="0.5292" />
<ellipse cx="49.2121" cy="34.3955" rx="0.5292" ry="0.5292" />
<ellipse cx="51.3287" cy="34.3955" rx="0.5292" ry="0.5292" />
<ellipse cx="57.6787" cy="34.3955" rx="0.5292" ry="0.5292" />
</g>
<g fill="rgb(255,255,255)">
<ellipse cx="3.7041" cy="35.4539" rx="0.5292" ry="0.5292" />
<ellipse cx="7.9374" cy="35.4539" rx="0.5292" ry="0.5292" />
<ellipse cx="10.0541" cy="35.4539" rx="0.5292" ry="0.5292" />
<ellipse cx="12.1707" cy="35.4539" rx="0.5292" ry="0.5292" />
<ellipse cx="16.4040" cy="35.4539" rx="0.5292" ry="0.5292" />
<ellipse cx="18.5207" cy="35.4539" rx="0.5292" ry="0.5292" />
<ellipse cx="29.1039" cy="35.4539" rx="0.5292" ry="0.5292" />
<ellipse cx="33.3372" cy="35.4539" rx="0.5292" ry="0.5292" />
<ellipse cx="37.5705" cy="35.4539" rx="0.5292" ry="0.5292" />
<ellipse cx="39.6872" cy="35.4539" rx="0.5292" ry="0.5292" />
<ellipse cx="41.8038" cy="35.4539" rx="0.5292" ry="0.5292" />
<ellipse cx="43.9205" cy="35.4539" rx="0.5292" ry="0.5292" />
<ellipse cx="50.2704" cy="35.4539" rx="0.5292" ry="0.5292" />
<ellipse cx="54.5037" cy="35.4539" rx="0.5292" ry="0.5292" />
<ellipse cx="56.6204" cy="35.4539" rx="0.5292" ry="0.5292" />
<ellipse cx="58.7370" cy="35.4539" rx="0.5292" ry="0.5292" />
</g>
<g fill="rgb(255,255,255)">
<ellipse cx="2.6458" cy="36.5122" rx="0.5292" ry="0.5292" />
<ellipse cx="6.8791" cy="36.5122" rx="0.5292" ry="0.5292" />
<ellipse cx="8.9958" cy="36.5122" rx="0.5292" ry="0.5292" />
<ellipse cx="15.3457" cy="36.5122" rx="0.5292" ry="0.5292" />
<ellipse cx="17.4624" cy="36.5122" rx="0.5292" ry="0.5292" />
<ellipse cx="19.5790" cy="36.5122" rx="0.5292" ry="0.5292" />
<ellipse cx="25.9289" cy="36.5122" rx="0.5292" ry="0.5292" />
<ellipse cx="30.1622" cy="36.5122" rx="0.5292" ry="0.5292" />
<ellipse cx="32.2789" cy="36.5122" rx="0.5292" ry="0.5292" />
<ellipse cx="34.3955" cy="36.5122" rx="0.5292" ry="0.5292" />
<ellipse cx="42.8621" cy="36.5122" rx="0.5292" ry="0.5292" />
<ellipse cx="44.9788" cy="36.5122" rx="0.5292" ry="0.5292" />
<ellipse cx="49.2121" cy="36.5122" rx="0.5292" ry="0.5292" />
<ellipse cx="51.3287" cy="36.5122" rx="0.5292" ry="0.5292" />
<ellipse cx="55.5620" cy="36.5122" rx="0.5292" ry="0.5292" />
</g>
<g fill="rgb(255,255,255)">
<ellipse cx="12.1707" cy="37.5705" rx="0.5292" ry="0.5292" />
<ellipse cx="14.2874" cy="37.5705" rx="0.5292" ry="0.5292" />
<ellipse cx="16.4040" cy="37.5705" rx="0.5292" ry="0.5292" />
<ellipse cx="20.6373" cy="37.5705" rx="0.5292" ry="0.5292" />
<ellipse cx="22.7540" cy="37.5705" rx="0.5292" ry="0.5292" />
<ellipse cx="29.1039" cy="37.5705" rx="0.5292" ry="0.5292" />
<ellipse cx="33.3372" cy="37.5705" rx="0.5292" ry="0.5292" />
<ellipse cx="35.4539" cy="37.5705" rx="0.5292" ry="0.5292" />
<ellipse cx="37.5705" cy="37.5705" rx="0.5292" ry="0.5292" />
<ellipse cx="39.6872" cy="37.5705" rx="0.5292" ry="0.5292" />
<ellipse cx="48.1538" cy="37.5705" rx="0.5292" ry="0.5292" />
<ellipse cx="50.2704" cy="37.5705" rx="0.5292" ry="0.5292" />
<ellipse cx="54.5037" cy="37.5705" rx="0.5292" ry="0.5292" />
<ellipse cx="56.6204" cy="37.5705" rx="0.5292" ry="0.5292" />
<ellipse cx="58.7370" cy="37.5705" rx="0.5292" ry="0.5292" />
</g>
<g fill="rgb(255,255,255)">
<ellipse cx="0.5292" cy="38.6288" rx="0.5292" ry="0.5292" />
<ellipse cx="2.6458" cy="38.6288" rx="0.5292" ry="0.5292" />
<ellipse cx="4.7625" cy="38.6288" rx="0.5292" ry="0.5292" />
<ellipse cx="6.8791" cy="38.6288" rx="0.5292" ry="0.5292" />
<ellipse cx="13.2291" cy="38.6288" rx="0.5292" ry="0.5292" />
<ellipse cx="15.3457" cy="38.6288" rx="0.5292" ry="0.5292" />
<ellipse cx="17.4624" cy="38.6288" rx="0.5292" ry="0.5292" />
<ellipse cx="19.5790" cy="38.6288" rx="0.5292" ry="0.5292" />
<ellipse cx="25.9289" cy="38.6288" rx="0.5292" ry="0.5292" />
<ellipse cx="28.0456" cy="38.6288" rx="0.5292" ry="0.5292" />
<ellipse cx="32.2789" cy="38.6288" rx="0.5292" ry="0.5292" />
<ellipse cx="36.5122" cy="38.6288" rx="0.5292" ry="0.5292" />
<ellipse cx="38.6288" cy="38.6288" rx="0.5292" ry="0.5292" />
<ellipse cx="44.9788" cy="38.6288" rx="0.5292" ry="0.5292" />
<ellipse cx="49.2121" cy="38.6288" rx="0.5292" ry="0.5292" />
<ellipse cx="51.3287" cy="38.6288" rx="0.5292" ry="0.5292" />
<ellipse cx="53.4454" cy="38.6288" rx="0.5292" ry="0.5292" />
<ellipse cx="55.5620" cy="38.6288" rx="0.5292" ry="0.5292" />
<ellipse cx="57.6787" cy="38.6288" rx="0.5292" ry="0.5292" />
</g>
</svg>
